<svg width="16" height="17" viewBox="0 0 16 17" fill="none" xmlns="http://www.w3.org/2000/svg">
<g opacity="0.32">
<path d="M3.99992 1.33337C3.3803 1.33337 3.07049 1.33337 2.81347 1.388C1.84767 1.59329 1.09317 2.34779 0.887883 3.3136C0.833252 3.57061 0.833252 3.88042 0.833252 4.50004V4.50004C0.833252 5.11966 0.833252 5.42947 0.887883 5.68649C1.09317 6.65229 1.84767 7.40679 2.81347 7.61208C3.07049 7.66671 3.3803 7.66671 3.99992 7.66671V7.66671C4.61954 7.66671 4.92935 7.66671 5.18636 7.61208C6.15217 7.40679 6.90667 6.65229 7.11195 5.68649C7.16659 5.42947 7.16659 5.11966 7.16659 4.50004V4.50004C7.16659 3.88042 7.16659 3.57061 7.11195 3.3136C6.90667 2.34779 6.15217 1.59329 5.18636 1.388C4.92935 1.33337 4.61954 1.33337 3.99992 1.33337V1.33337Z" fill="#2F384C"/>
<path d="M11.9999 9.33337C11.3803 9.33337 11.0705 9.33337 10.8135 9.38801C9.84767 9.59329 9.09317 10.3478 8.88788 11.3136C8.83325 11.5706 8.83325 11.8804 8.83325 12.5V12.5C8.83325 13.1197 8.83325 13.4295 8.88788 13.6865C9.09317 14.6523 9.84767 15.4068 10.8135 15.6121C11.0705 15.6667 11.3803 15.6667 11.9999 15.6667V15.6667C12.6195 15.6667 12.9293 15.6667 13.1864 15.6121C14.1522 15.4068 14.9067 14.6523 15.112 13.6865C15.1666 13.4295 15.1666 13.1197 15.1666 12.5V12.5C15.1666 11.8804 15.1666 11.5706 15.112 11.3136C14.9067 10.3478 14.1522 9.59329 13.1864 9.38801C12.9293 9.33337 12.6195 9.33337 11.9999 9.33337V9.33337Z" fill="#2F384C"/>
</g>
<path fill-rule="evenodd" clip-rule="evenodd" d="M12.7499 1.83337C12.7499 1.41916 12.4141 1.08337 11.9999 1.08337C11.5857 1.08337 11.2499 1.41916 11.2499 1.83337V3.75004H9.33325C8.91904 3.75004 8.58325 4.08583 8.58325 4.50004C8.58325 4.91425 8.91904 5.25004 9.33325 5.25004H11.2499V7.16671C11.2499 7.58092 11.5857 7.91671 11.9999 7.91671C12.4141 7.91671 12.7499 7.58092 12.7499 7.16671V5.25004H14.6666C15.0808 5.25004 15.4166 4.91425 15.4166 4.50004C15.4166 4.08583 15.0808 3.75004 14.6666 3.75004H12.7499V1.83337ZM0.887883 11.3136C0.833252 11.5706 0.833252 11.8804 0.833252 12.5C0.833252 13.1197 0.833252 13.4295 0.887883 13.6865C1.09317 14.6523 1.84767 15.4068 2.81347 15.6121C3.07049 15.6667 3.3803 15.6667 3.99992 15.6667C4.61954 15.6667 4.92935 15.6667 5.18636 15.6121C6.15217 15.4068 6.90667 14.6523 7.11195 13.6865C7.16659 13.4295 7.16659 13.1197 7.16659 12.5C7.16659 11.8804 7.16659 11.5706 7.11195 11.3136C6.90667 10.3478 6.15217 9.59329 5.18636 9.388C4.92935 9.33337 4.61954 9.33337 3.99992 9.33337C3.3803 9.33337 3.07049 9.33337 2.81347 9.388C1.84767 9.59329 1.09317 10.3478 0.887883 11.3136Z" fill="#2F384C"/>
</svg>
