<svg width="32" height="32" viewBox="0 0 32 32" fill="none" xmlns="http://www.w3.org/2000/svg">
  <path
    d="M19.346 27.8741C19.3598 27.2026 19.38 26.2114 19.38 25.3333C19.38 24 18.4732 22.7757 18.4732 22.7757C21.484 22.4454 24.656 20.6715 24.656 15.3857C24.656 13.844 24.1184 13.1282 23.2581 12.1371L23.2773 12.07C23.4118 11.6043 23.8111 10.2217 23.0969 8.39298C21.9678 8.00755 19.3872 9.87962 19.3872 9.87962C18.3119 9.54925 17.1829 9.43913 16.0001 9.43913C14.871 9.43913 13.742 9.54925 12.6667 9.87962C12.6667 9.87962 10.0323 8.06261 8.95707 8.39298C8.20438 10.3201 8.63449 11.7517 8.79578 12.1371C7.93557 13.1282 7.50546 13.844 7.50546 15.3857C7.50546 20.6715 10.57 22.4454 13.5807 22.7757C13.5807 22.7757 12.6667 23.8165 12.6667 25.2416V27.8776V29.9437C6.35823 28.4412 1.66675 22.7685 1.66675 16C1.66675 8.08391 8.084 1.66666 16.0001 1.66666C23.9162 1.66666 30.3334 8.08391 30.3334 16C30.3334 22.764 25.6482 28.4336 19.346 29.9407V27.8741Z"
    fill="#64748B" />
</svg>